Coordinates
version=1
nRows=8
nColumns=40
inDegrees=yes

Units are S.I. units (second, meters, Newtons, ...)
Angles are in degrees.

endheader
time	pelvis_tilt	pelvis_list	pelvis_rotation	pelvis_tx	pelvis_ty	pelvis_tz	hip_flexion_r	hip_adduction_r	hip_rotation_r	knee_angle_r	knee_angle_r_beta	ankle_angle_r	subtalar_angle_r	mtp_angle_r	hip_flexion_l	hip_adduction_l	hip_rotation_l	knee_angle_l	knee_angle_l_beta	ankle_angle_l	subtalar_angle_l	mtp_angle_l	lumbar_extension	lumbar_bending	lumbar_rotation	arm_flex_r	arm_add_r	arm_rot_r	elbow_flex_r	pro_sup_r	wrist_flex_r	wrist_dev_r	arm_flex_l	arm_add_l	arm_rot_l	elbow_flex_l	pro_sup_l	wrist_flex_l	wrist_dev_l
     58.85000000	     -0.76568621	     -6.19296731	     -2.06310058	      0.92288969	      0.91102759	      0.56570276	     13.90671853	      7.60535641	     -8.07374588	     30.88070739	     30.88070739	     18.38478033	    -13.39845842	     -0.23689784	     30.39348952	    -13.61326296	      4.25462803	     69.67653663	     69.67653663	     16.61617472	    -19.67159999	     24.63947472	    -12.31689955	      5.80420110	     -0.42771562	     23.17868263	    -17.31149913	    -15.37395295	     51.84130321	     45.69028926	      0.00000000	      0.00000000	      8.76609308	     -8.19938360	     -1.29071739	     26.84594434	     46.58976183	      0.00000000	      0.00000000
     58.87000000	     -0.50015091	     -6.19188344	     -1.25059006	      0.92236821	      0.90956792	      0.56597088	     13.59218024	      7.62652739	     -8.29051969	     31.50920434	     31.50920434	     19.07062239	    -14.15221017	      0.02797010	     31.24241480	    -13.33141512	      4.63247187	     68.26826294	     68.26826294	     16.82107910	    -19.66644557	     24.56034076	    -12.46719437	      5.57690973	     -0.42503009	     25.01369330	    -17.12736621	    -15.28173805	     53.64967547	     45.63036489	      0.00000000	      0.00000000	      6.46828201	     -7.96077222	     -0.84831736	     25.08550636	     46.47105215	      0.00000000	      0.00000000
     58.89000000	     -0.30835449	     -6.16458879	     -0.43082181	      0.92190630	      0.90867154	      0.56589804	     13.16017782	      7.60272663	     -8.60020695	     31.77704945	     31.77704945	     19.64559225	    -14.67725095	      0.29914053	     31.95079557	    -13.02502259	      4.89994879	     66.34517188	     66.34517188	     16.88326974	    -19.65050841	     24.41666230	    -12.55056565	      5.36050809	     -0.32862359	     26.78687271	    -17.03441284	    -15.17691510	     55.57357906	     45.56658253	      0.00000000	      0.00000000	      4.14823023	     -7.78309458	     -0.46531628	     23.69825486	     46.35546158	      0.00000000	      0.00000000
     58.91000000	     -0.24620723	     -6.12305313	      0.41177865	      0.92149189	      0.90837415	      0.56549064	     12.64786495	      7.54395065	     -9.02448725	     31.64108967	     31.64108967	     20.08193896	    -14.96788514	      0.64164363	     32.56857055	    -12.66427898	      5.13589385	     63.91531365	     63.91531365	     16.80654925	    -19.63303383	     24.12478244	    -12.50668772	      5.11473631	     -0.19441281	     28.43586259	    -17.03172881	    -15.01397108	     57.80037487	     45.49063881	      0.00000000	      0.00000000	      1.77782936	     -7.67947974	     -0.07076793	     22.66660529	     46.22704230	      0.00000000	      0.00000000
     58.93000000	     -0.24580091	     -5.99569624	      1.25116925	      0.92112629	      0.90883624	      0.56472159	     11.98889861	      7.38664330	     -9.50405012	     31.11675261	     31.11675261	     20.36630431	    -15.09294332	      0.90842745	     32.96636268	    -12.18342321	      5.27176214	     60.95901003	     60.95901003	     16.53045181	    -19.60062989	     23.83738787	    -12.38807153	      4.82282656	      0.00202558	     30.02472132	    -17.13254425	    -14.89810042	     59.95292688	     45.41999857	      0.00000000	      0.00000000	     -0.53662235	     -7.64978862	      0.19711566	     21.95096897	     46.11964194	      0.00000000	      0.00000000
     58.95000000	     -0.44292312	     -5.88920590	      2.11450572	      0.92070272	      0.90961888	      0.56354021	     11.40884567	      7.22194846	    -10.06351403	     30.33602553	     30.33602553	     20.56153910	    -14.97748533	      1.31885778	     33.31877497	    -11.62807106	      5.49272503	     57.53999284	     57.53999284	     15.68287727	    -19.55157664	     22.06336539	    -12.24754087	      4.60809651	      0.55748963	     30.62530200	    -17.88254900	    -14.31387439	     64.51900813	     45.25971518	      0.00000000	      0.00000000	     -3.13407386	     -7.90251076	      1.66029624	     22.79868778	     45.72228824	      0.00000000	      0.00000000
     58.97000000	     -0.72618404	     -5.64687779	      2.95129439	      0.92024814	      0.91101173	      0.56198684	     10.75040064	      6.91218400	    -10.59930774	     29.23710285	     29.23710285	     20.50597563	    -14.85902631	      1.51797743	     33.49838287	    -10.83268902	      5.73964807	     53.78992415	     53.78992415	     15.26923587	    -19.46618723	     22.10984029	    -11.87597199	      4.20847870	      0.86211205	     32.30501918	    -18.12670558	    -14.41066865	     66.00402422	     45.22292729	      0.00000000	      0.00000000	     -5.12159719	     -7.98835378	      1.82050724	     22.18007614	     45.64990978	      0.00000000	      0.00000000
     58.99000000	     -1.02991388	     -5.42794695	      3.81994050	      0.91990251	      0.91267232	      0.56005351	      9.92948752	      6.57533093	    -11.41328823	     27.82821234	     27.82821234	     20.25880143	    -14.37449972	      1.08308444	     33.35771240	    -10.08264358	      5.93156478	     49.53761614	     49.53761614	     13.60308316	    -19.33665745	     18.95074853	    -11.69196886	      3.90459709	      0.96284488	     33.36296046	    -18.43000842	    -14.10557527	     70.30675957	     45.09082118	      0.00000000	      0.00000000	     -7.64977926	     -8.29609059	      2.70665051	     23.19284206	     45.39679581	      0.00000000	      0.00000000
